<svg width="220" height="31" viewBox="0 0 220 31" fill="none" xmlns="http://www.w3.org/2000/svg">
<path d="M6.692 12V10.208H7.77V8.584H6.692V2.998H4.76L0.49 8.318V10.208H4.536V12H6.692ZM2.1 8.584L4.536 5.448V8.584H2.1ZM8.68241 12.014H15.4584V10.376H10.9784C11.8604 8.598 15.4724 8.22 15.4724 5.644C15.4724 4.076 14.3384 2.774 12.1824 2.774C10.1944 2.774 8.87841 3.894 8.64041 5.714H10.7964C10.9224 4.958 11.3424 4.51 12.1684 4.51C12.8964 4.51 13.3304 4.93 13.3304 5.672C13.3304 7.618 8.68241 7.464 8.68241 11.482V12.014ZM18.5408 7.912C19.9548 7.912 20.7948 6.96 20.7948 5.35C20.7948 3.726 19.9548 2.774 18.5408 2.774C17.1408 2.774 16.3008 3.726 16.3008 5.35C16.3008 6.974 17.1408 7.912 18.5408 7.912ZM18.1348 12H19.9548L25.7648 2.998H23.9448L18.1348 12ZM18.5408 6.638C18.1208 6.638 17.8828 6.176 17.8828 5.35C17.8828 4.51 18.1068 4.062 18.5408 4.062C18.9748 4.062 19.2128 4.51 19.2128 5.35C19.2128 6.19 18.9748 6.638 18.5408 6.638ZM25.3448 12.14C26.7588 12.14 27.5988 11.202 27.5988 9.592C27.5988 7.968 26.7588 7.016 25.3448 7.016C23.9448 7.016 23.1048 7.968 23.1048 9.592C23.1048 11.202 23.9448 12.14 25.3448 12.14ZM25.3448 10.88C24.9248 10.88 24.6868 10.418 24.6868 9.592C24.6868 8.752 24.9108 8.29 25.3448 8.29C25.7788 8.29 26.0168 8.752 26.0168 9.592C26.0168 10.432 25.7788 10.88 25.3448 10.88Z" fill="#C9C9D7"/>
<path d="M2.165 28V22.02H0.15V21H5.27V22.02H3.255V28H2.165ZM7.4482 28.1C6.92487 28.1 6.47654 27.985 6.1032 27.755C5.7332 27.5217 5.44987 27.2117 5.2532 26.825C5.05987 26.435 4.9632 26.005 4.9632 25.535C4.9632 25.0617 5.05987 24.63 5.2532 24.24C5.44987 23.85 5.7332 23.54 6.1032 23.31C6.47654 23.0767 6.92487 22.96 7.4482 22.96C7.97487 22.96 8.4232 23.0767 8.7932 23.31C9.16654 23.54 9.44987 23.85 9.6432 24.24C9.83987 24.63 9.9382 25.0617 9.9382 25.535C9.9382 26.005 9.83987 26.435 9.6432 26.825C9.44987 27.2117 9.16654 27.5217 8.7932 27.755C8.4232 27.985 7.97487 28.1 7.4482 28.1ZM7.4482 27.205C7.9082 27.205 8.25987 27.055 8.5032 26.755C8.74987 26.455 8.8732 26.0483 8.8732 25.535C8.8732 25.0183 8.74987 24.6083 8.5032 24.305C8.25987 24.0017 7.9082 23.85 7.4482 23.85C6.99487 23.85 6.64487 24.0017 6.3982 24.305C6.15154 24.6083 6.0282 25.0183 6.0282 25.535C6.0282 26.0483 6.15154 26.455 6.3982 26.755C6.64487 27.055 6.99487 27.205 7.4482 27.205ZM12.8141 28.1C12.3608 28.1 11.9641 27.985 11.6241 27.755C11.2841 27.5217 11.0191 27.2117 10.8291 26.825C10.6425 26.4383 10.5491 26.01 10.5491 25.54C10.5491 25.0833 10.6375 24.66 10.8141 24.27C10.9941 23.8767 11.2525 23.5617 11.5891 23.325C11.9291 23.085 12.3375 22.965 12.8141 22.965C13.1575 22.965 13.4708 23.0317 13.7541 23.165C14.0375 23.2983 14.2758 23.5 14.4691 23.77L14.2291 23.955V20.5H15.2741V28H14.3191L14.1941 27.04L14.4791 27.245C14.2991 27.5217 14.0675 27.7333 13.7841 27.88C13.5008 28.0267 13.1775 28.1 12.8141 28.1ZM12.9841 27.205C13.2308 27.205 13.4541 27.1433 13.6541 27.02C13.8575 26.8967 14.0175 26.7117 14.1341 26.465C14.2541 26.2183 14.3141 25.91 14.3141 25.54C14.3141 25.1867 14.2541 24.885 14.1341 24.635C14.0175 24.3817 13.8575 24.19 13.6541 24.06C13.4541 23.9267 13.2308 23.86 12.9841 23.86C12.6975 23.86 12.4508 23.9333 12.2441 24.08C12.0408 24.2233 11.8841 24.4217 11.7741 24.675C11.6675 24.925 11.6141 25.2133 11.6141 25.54C11.6141 25.8533 11.6675 26.1367 11.7741 26.39C11.8841 26.64 12.0408 26.8383 12.2441 26.985C12.4508 27.1317 12.6975 27.205 12.9841 27.205ZM17.5694 28.1C17.2827 28.1 17.0277 28.04 16.8044 27.92C16.581 27.7967 16.4044 27.6267 16.2744 27.41C16.1477 27.1933 16.0844 26.9383 16.0844 26.645C16.0844 26.365 16.1477 26.1267 16.2744 25.93C16.401 25.73 16.5694 25.5633 16.7794 25.43C16.9894 25.2967 17.2194 25.1917 17.4694 25.115C17.7227 25.035 17.9794 24.9767 18.2394 24.94C18.4994 24.9033 18.741 24.8833 18.9644 24.88C18.961 24.49 18.8777 24.2267 18.7144 24.09C18.551 23.95 18.3027 23.88 17.9694 23.88C17.7694 23.88 17.5644 23.91 17.3544 23.97C17.1444 24.0267 16.9077 24.135 16.6444 24.295L16.5244 23.445C16.7644 23.2983 17.0327 23.1817 17.3294 23.095C17.626 23.0083 17.9327 22.965 18.2494 22.965C18.646 22.965 18.9744 23.035 19.2344 23.175C19.4944 23.315 19.6894 23.5467 19.8194 23.87C19.9494 24.1933 20.0144 24.6267 20.0144 25.17V26.32C20.0144 26.56 20.0244 26.7483 20.0444 26.885C20.0677 27.0183 20.116 27.1133 20.1894 27.17C20.2627 27.2267 20.3744 27.255 20.5244 27.255H20.6444L20.5144 28.1H20.2844C20.0377 28.1 19.8377 28.0733 19.6844 28.02C19.5344 27.9667 19.4127 27.8917 19.3194 27.795C19.226 27.695 19.1477 27.5767 19.0844 27.44C18.9077 27.64 18.6877 27.8 18.4244 27.92C18.1644 28.04 17.8794 28.1 17.5694 28.1ZM17.8894 27.28C18.076 27.28 18.2677 27.2333 18.4644 27.14C18.6644 27.0467 18.8327 26.9167 18.9694 26.75V25.59C18.596 25.6067 18.2744 25.6517 18.0044 25.725C17.7377 25.795 17.531 25.9017 17.3844 26.045C17.241 26.1883 17.1694 26.3717 17.1694 26.595C17.1694 26.835 17.2327 27.01 17.3594 27.12C17.486 27.2267 17.6627 27.28 17.8894 27.28ZM21.5171 30.42L22.6371 27.735L20.5821 23.06H21.7421L23.1671 26.52L24.5121 23.06H25.6721L22.6171 30.42H21.5171ZM26.5221 23.31H25.9471L26.3371 22.185H25.9221V21H27.0921V22.075L26.5221 23.31ZM28.9922 28.1C28.6022 28.1 28.2689 28.0567 27.9922 27.97C27.7155 27.8833 27.4872 27.7917 27.3072 27.695L27.4172 26.745C27.5872 26.8617 27.8022 26.975 28.0622 27.085C28.3255 27.1917 28.6222 27.245 28.9522 27.245C29.2389 27.245 29.4572 27.1983 29.6072 27.105C29.7605 27.0083 29.8372 26.8667 29.8372 26.68C29.8372 26.5267 29.7922 26.4033 29.7022 26.31C29.6122 26.2133 29.4939 26.1333 29.3472 26.07C29.2005 26.0067 29.0455 25.9483 28.8822 25.895C28.6255 25.8117 28.3822 25.715 28.1522 25.605C27.9255 25.495 27.7405 25.3483 27.5972 25.165C27.4572 24.9783 27.3872 24.7317 27.3872 24.425C27.3872 24.1583 27.4539 23.9133 27.5872 23.69C27.7205 23.4667 27.9222 23.29 28.1922 23.16C28.4655 23.0267 28.8122 22.96 29.2322 22.96C29.5522 22.96 29.8239 22.995 30.0472 23.065C30.2739 23.1317 30.4755 23.2117 30.6522 23.305L30.5422 24.23C30.3655 24.0933 30.1739 23.98 29.9672 23.89C29.7639 23.7967 29.5255 23.75 29.2522 23.75C28.9989 23.75 28.7972 23.8 28.6472 23.9C28.4972 23.9967 28.4222 24.145 28.4222 24.345C28.4222 24.5583 28.5105 24.7133 28.6872 24.81C28.8639 24.9067 29.1389 25.0183 29.5122 25.145C29.6822 25.2017 29.8489 25.27 30.0122 25.35C30.1755 25.4267 30.3239 25.52 30.4572 25.63C30.5939 25.74 30.7022 25.8767 30.7822 26.04C30.8622 26.2033 30.9022 26.3983 30.9022 26.625C30.9022 26.885 30.8389 27.1267 30.7122 27.35C30.5889 27.5733 30.3872 27.755 30.1072 27.895C29.8305 28.0317 29.4589 28.1 28.9922 28.1ZM38.003 26.21H35.033V25.235H38.003V26.21ZM36.368 22.065H36.668L34.573 28H33.473L35.973 21H37.063L39.563 28H38.463L36.368 22.065ZM42.3867 28.1C41.8267 28.1 41.3551 27.985 40.9717 27.755C40.5917 27.525 40.3051 27.2183 40.1117 26.835C39.9184 26.4483 39.8217 26.02 39.8217 25.55C39.8217 25.0667 39.9167 24.63 40.1067 24.24C40.2967 23.8467 40.5851 23.535 40.9717 23.305C41.3584 23.075 41.8501 22.96 42.4467 22.96C42.7134 22.96 42.9601 22.9883 43.1867 23.045C43.4134 23.0983 43.6134 23.17 43.7867 23.26L43.6617 24.14C43.4917 24.0567 43.3067 23.99 43.1067 23.94C42.9067 23.8867 42.7001 23.86 42.4867 23.86C41.9701 23.86 41.5734 24.01 41.2967 24.31C41.0234 24.61 40.8867 25.015 40.8867 25.525C40.8867 26.0217 41.0217 26.4267 41.2917 26.74C41.5617 27.0533 41.9551 27.21 42.4717 27.21C42.6851 27.21 42.8917 27.1833 43.0917 27.13C43.2951 27.0733 43.4884 26.9967 43.6717 26.9L43.7867 27.76C43.6367 27.8533 43.4351 27.9333 43.1817 28C42.9317 28.0667 42.6667 28.1 42.3867 28.1ZM46.3127 28.1C46.0027 28.1 45.7511 28.04 45.5577 27.92C45.3677 27.8 45.2277 27.6467 45.1377 27.46C45.0511 27.2733 45.0077 27.0767 45.0077 26.87V23.895H44.2227L44.3177 23.06H45.0077V21.895L46.0527 21.785V23.06H47.2627V23.895H46.0527V26.34C46.0527 26.6267 46.0694 26.835 46.1027 26.965C46.1361 27.0917 46.2177 27.1717 46.3477 27.205C46.4777 27.2383 46.6844 27.255 46.9677 27.255H47.2477L47.1577 28.1H46.3127ZM48.0462 28V23.06H49.0912V28H48.0462ZM48.0462 22.1V21H49.0912V22.1H48.0462ZM51.6425 28L49.7525 23.06H50.8475L52.1575 26.775L53.4625 23.06H54.5575L52.6725 28H51.6425ZM55.2141 28V23.06H56.2591V28H55.2141ZM55.2141 22.1V21H56.2591V22.1H55.2141ZM59.1155 28.1C58.8055 28.1 58.5538 28.04 58.3605 27.92C58.1705 27.8 58.0305 27.6467 57.9405 27.46C57.8538 27.2733 57.8105 27.0767 57.8105 26.87V23.895H57.0255L57.1205 23.06H57.8105V21.895L58.8555 21.785V23.06H60.0655V23.895H58.8555V26.34C58.8555 26.6267 58.8721 26.835 58.9055 26.965C58.9388 27.0917 59.0205 27.1717 59.1505 27.205C59.2805 27.2383 59.4871 27.255 59.7705 27.255H60.0505L59.9605 28.1H59.1155ZM61.2339 30.42L62.3539 27.735L60.2989 23.06H61.4589L62.8839 26.52L64.2289 23.06H65.3889L62.3339 30.42H61.2339Z" fill="#777784"/>
<rect x="42.3066" y="4" width="177.693" height="6" rx="3" fill="#EEEEEE"/>
<rect x="40" y="4" width="77.3917" height="6" rx="3" fill="#FFBE2E"/>
</svg>
